ply
format ascii 1.0
comment Created by Blender 2.79 (sub 0) - www.blender.org, source file: 'UI.blend'
element vertex 411
property float x
property float y
property float z
property uchar red
property uchar green
property uchar blue
element face 224
property list uchar uint vertex_indices
end_header
-0.333333 0.510000 0.000000 249 249 249
-0.452594 0.452594 0.028712 253 253 253
-0.352584 0.454649 0.028712 248 248 248
-0.468033 0.169837 0.028712 221 221 221
-0.368925 0.368925 0.028712 225 225 225
-0.454649 0.352584 0.028712 227 227 227
-0.352584 0.454649 0.028712 227 227 227
-0.452594 0.452594 0.028712 230 230 230
-0.169837 0.468033 0.028712 221 221 221
-0.333333 0.333333 0.000000 76 76 76
-0.169837 0.468033 0.028712 76 76 76
-0.368925 0.368925 0.028712 154 154 154
-0.468033 0.169837 0.028712 87 87 87
-0.333333 0.333333 0.000000 87 87 87
-0.368925 0.368925 0.028712 158 158 158
-0.468033 0.169837 0.028712 238 238 238
-0.510000 0.333333 0.000000 244 244 244
-0.500000 0.066667 0.000000 230 230 230
-0.452594 0.452594 0.028712 247 247 247
-0.510000 0.333333 0.000000 243 243 243
-0.454649 0.352584 0.028712 243 243 243
-0.169837 0.468033 0.028712 243 243 243
-0.066667 0.500000 0.000000 238 238 238
0.333333 0.510000 0.000000 223 223 223
0.452594 0.452594 0.028712 219 219 219
0.500000 0.500000 0.000000 216 216 216
0.468033 0.169837 0.028712 195 195 195
0.454649 0.352584 0.028712 198 198 198
0.368925 0.368925 0.028712 201 201 201
0.452594 0.452594 0.028712 199 199 199
0.352584 0.454649 0.028712 203 203 203
0.169837 0.468033 0.028712 209 209 209
0.169837 0.468033 0.028712 184 184 184
0.333333 0.333333 0.000000 176 176 176
0.368925 0.368925 0.028712 183 183 183
0.468033 0.169837 0.028712 213 213 213
0.333333 0.333333 0.000000 220 220 220
0.500000 0.066667 0.000000 204 204 204
0.468033 0.169837 0.028712 106 106 106
0.510000 0.333333 0.000000 106 106 106
0.454649 0.352584 0.028712 135 135 135
0.510000 0.333333 0.000000 127 127 127
0.452594 0.452594 0.028712 128 128 128
0.454649 0.352584 0.028712 133 133 133
0.169837 0.468033 0.028712 226 226 226
0.333333 0.510000 0.000000 221 221 221
0.066667 0.500000 0.000000 237 237 237
-0.333333 0.510000 0.000000 145 145 145
-0.452594 0.452594 -0.028712 145 145 145
-0.500000 0.500000 0.000000 147 147 147
-0.468033 0.169837 -0.028712 124 124 124
-0.454649 0.352584 -0.028712 124 124 124
-0.368925 0.368925 -0.028712 124 124 124
-0.452594 0.452594 -0.028712 124 124 124
-0.352584 0.454649 -0.028712 124 124 124
-0.169837 0.468033 -0.028712 124 124 124
-0.169837 0.468033 -0.028712 67 67 67
-0.333333 0.333333 0.000000 67 67 67
-0.368925 0.368925 -0.028712 88 88 88
-0.468033 0.169837 -0.028712 97 97 97
-0.333333 0.333333 0.000000 97 97 97
-0.500000 0.066667 0.000000 79 79 79
-0.468033 0.169837 -0.028712 137 137 137
-0.510000 0.333333 0.000000 137 137 137
-0.454649 0.352584 -0.028712 136 136 136
-0.510000 0.333333 0.000000 136 136 136
-0.452594 0.452594 -0.028712 136 136 136
-0.454649 0.352584 -0.028712 135 135 135
-0.169837 0.468033 -0.028712 146 146 146
-0.333333 0.510000 0.000000 146 146 146
-0.066667 0.500000 0.000000 151 151 151
0.333333 0.510000 0.000000 146 146 146
0.452594 0.452594 -0.028712 146 146 146
0.352584 0.454649 -0.028712 145 145 145
0.468033 0.169837 -0.028712 124 124 124
0.368925 0.368925 -0.028712 124 124 124
0.454649 0.352584 -0.028712 124 124 124
0.352584 0.454649 -0.028712 124 124 124
0.452594 0.452594 -0.028712 124 124 124
0.169837 0.468033 -0.028712 124 124 124
0.333333 0.333333 0.000000 98 98 98
0.169837 0.468033 -0.028712 98 98 98
0.368925 0.368925 -0.028712 103 103 103
0.468033 0.169837 -0.028712 118 118 118
0.333333 0.333333 0.000000 118 118 118
0.368925 0.368925 -0.028712 123 123 123
0.468033 0.169837 -0.028712 113 113 113
0.510000 0.333333 0.000000 113 113 113
0.500000 0.066667 0.000000 106 106 106
0.452594 0.452594 -0.028712 112 112 112
0.510000 0.333333 0.000000 112 112 112
0.454649 0.352584 -0.028712 112 112 112
0.333333 0.510000 0.000000 145 145 145
0.169837 0.468033 -0.028712 145 145 145
0.066667 0.500000 0.000000 152 152 152
-0.333333 -0.510000 0.000000 120 120 120
-0.452594 -0.452594 0.028712 121 121 121
-0.500000 -0.500000 0.000000 113 113 113
-0.468033 -0.169837 0.028712 209 209 209
-0.454649 -0.352584 0.028712 203 203 203
-0.368925 -0.368925 0.028712 201 201 201
-0.452594 -0.452594 0.028712 199 199 199
-0.352584 -0.454649 0.028712 198 198 198
-0.169837 -0.468033 0.028712 195 195 195
-0.169837 -0.468033 0.028712 221 221 221
-0.333333 -0.333333 0.000000 228 228 228
-0.368925 -0.368925 0.028712 229 229 229
-0.468033 -0.169837 0.028712 202 202 202
-0.333333 -0.333333 0.000000 194 194 194
-0.500000 -0.066667 0.000000 202 202 202
-0.468033 -0.169837 0.028712 226 226 226
-0.510000 -0.333333 0.000000 220 220 220
-0.454649 -0.352584 0.028712 213 213 213
-0.510000 -0.333333 0.000000 215 215 215
-0.452594 -0.452594 0.028712 211 211 211
-0.454649 -0.352584 0.028712 216 216 216
-0.169837 -0.468033 0.028712 120 120 120
-0.066667 -0.500000 0.000000 82 82 82
0.333333 -0.510000 0.000000 101 101 101
0.452594 -0.452594 0.028712 101 101 101
0.352584 -0.454649 0.028712 114 114 114
0.468033 -0.169837 0.028712 189 189 189
0.368925 -0.368925 0.028712 188 188 188
0.454649 -0.352584 0.028712 186 186 186
0.352584 -0.454649 0.028712 186 186 186
0.452594 -0.452594 0.028712 185 185 185
0.169837 -0.468033 0.028712 189 189 189
0.333333 -0.333333 0.000000 253 253 253
0.169837 -0.468033 0.028712 254 254 254
0.368925 -0.368925 0.028712 238 238 238
0.468033 -0.169837 0.028712 252 252 252
0.333333 -0.333333 0.000000 251 251 251
0.368925 -0.368925 0.028712 235 235 235
0.468033 -0.169837 0.028712 122 122 122
0.510000 -0.333333 0.000000 121 121 121
0.500000 -0.066667 0.000000 108 108 108
0.452594 -0.452594 0.028712 116 116 116
0.510000 -0.333333 0.000000 116 116 116
0.454649 -0.352584 0.028712 127 127 127
0.333333 -0.510000 0.000000 108 108 108
0.169837 -0.468033 0.028712 109 109 109
0.066667 -0.500000 0.000000 84 84 84
-0.333333 -0.510000 0.000000 94 94 94
-0.452594 -0.452594 -0.028712 94 94 94
-0.352584 -0.454649 -0.028712 96 96 96
-0.468033 -0.169837 -0.028712 124 124 124
-0.368925 -0.368925 -0.028712 124 124 124
-0.454649 -0.352584 -0.028712 124 124 124
-0.352584 -0.454649 -0.028712 124 124 124
-0.452594 -0.452594 -0.028712 124 124 124
-0.169837 -0.468033 -0.028712 124 124 124
-0.333333 -0.333333 0.000000 144 144 144
-0.169837 -0.468033 -0.028712 144 144 144
-0.368925 -0.368925 -0.028712 140 140 140
-0.468033 -0.169837 -0.028712 128 128 128
-0.333333 -0.333333 0.000000 128 128 128
-0.468033 -0.169837 -0.028712 133 133 133
-0.510000 -0.333333 0.000000 133 133 133
-0.500000 -0.066667 0.000000 139 139 139
-0.452594 -0.452594 -0.028712 133 133 133
-0.454649 -0.352584 -0.028712 134 134 134
-0.333333 -0.510000 0.000000 96 96 96
-0.169837 -0.468033 -0.028712 96 96 96
0.333333 -0.510000 0.000000 95 95 95
0.452594 -0.452594 -0.028712 95 95 95
0.500000 -0.500000 0.000000 92 92 92
0.468033 -0.169837 -0.028712 124 124 124
0.454649 -0.352584 -0.028712 124 124 124
0.368925 -0.368925 -0.028712 124 124 124
0.452594 -0.452594 -0.028712 124 124 124
0.352584 -0.454649 -0.028712 124 124 124
0.169837 -0.468033 -0.028712 124 124 124
0.169837 -0.468033 -0.028712 195 195 195
0.333333 -0.333333 0.000000 195 195 195
0.368925 -0.368925 -0.028712 154 154 154
0.468033 -0.169837 -0.028712 149 149 149
0.333333 -0.333333 0.000000 149 149 149
0.500000 -0.066667 0.000000 192 192 192
0.468033 -0.169837 -0.028712 108 108 108
0.510000 -0.333333 0.000000 108 108 108
0.454649 -0.352584 -0.028712 109 109 109
0.510000 -0.333333 0.000000 109 109 109
0.452594 -0.452594 -0.028712 109 109 109
0.454649 -0.352584 -0.028712 111 111 111
0.169837 -0.468033 -0.028712 94 94 94
0.333333 -0.510000 0.000000 94 94 94
0.270000 0.075000 0.000000 208 208 208
0.270000 0.000000 0.045000 208 208 208
0.360000 0.000000 0.000000 189 189 189
0.270000 0.000000 0.045000 84 84 84
0.270000 -0.075000 0.000000 84 84 84
0.360000 0.000000 0.000000 80 80 80
0.270000 0.000000 -0.045000 84 84 84
0.270000 0.000000 -0.045000 142 142 142
0.270000 0.075000 0.000000 142 142 142
0.360000 0.000000 0.000000 138 138 138
0.000000 0.000000 -0.060000 132 132 132
0.200000 0.055556 -0.033333 132 132 132
0.270000 0.000000 -0.045000 136 136 136
0.000000 0.000000 -0.060000 115 115 115
-0.200000 -0.055556 -0.033333 115 115 115
-0.270000 0.000000 -0.045000 110 110 110
-0.270000 0.075000 0.000000 152 152 152
-0.270000 0.000000 -0.045000 152 152 152
-0.360000 0.000000 0.000000 153 153 153
-0.270000 0.000000 -0.045000 102 102 102
-0.270000 -0.075000 0.000000 102 102 102
-0.360000 0.000000 0.000000 107 107 107
-0.270000 -0.075000 0.000000 158 158 158
-0.270000 0.000000 0.045000 161 161 161
-0.360000 0.000000 0.000000 172 172 172
-0.270000 0.000000 0.045000 255 255 255
-0.270000 0.075000 0.000000 255 255 255
-0.360000 0.000000 0.000000 255 255 255
0.000000 0.000000 0.060000 224 224 224
-0.200000 0.055556 0.033333 230 230 230
-0.270000 0.000000 0.045000 234 234 234
0.000000 0.000000 0.060000 176 176 176
0.200000 -0.055556 0.033333 170 170 170
0.270000 0.000000 0.045000 163 163 163
-0.075000 0.270000 0.000000 253 253 253
0.000000 0.270000 0.045000 252 252 252
0.000000 0.360000 0.000000 255 255 255
0.000000 0.270000 0.045000 175 175 175
0.075000 0.270000 0.000000 173 173 173
0.000000 0.360000 0.000000 187 187 187
0.075000 0.270000 0.000000 125 125 125
0.000000 0.270000 -0.045000 125 125 125
0.000000 0.360000 0.000000 132 132 132
0.000000 0.270000 -0.045000 146 146 146
-0.075000 0.270000 0.000000 146 146 146
0.000000 0.360000 0.000000 151 151 151
-0.055556 0.200000 -0.033333 132 132 132
0.000000 0.270000 -0.045000 132 132 132
0.000000 0.000000 -0.060000 120 120 120
0.055556 0.200000 -0.033333 120 120 120
0.068354 0.068354 -0.041013 123 123 123
0.000000 0.000000 -0.060000 114 114 114
0.055556 -0.200000 -0.033333 114 114 114
0.000000 -0.270000 -0.045000 114 114 114
-0.075000 -0.270000 0.000000 122 122 122
0.000000 -0.270000 -0.045000 122 122 122
0.000000 -0.360000 0.000000 114 114 114
0.000000 -0.270000 -0.045000 94 94 94
0.075000 -0.270000 0.000000 94 94 94
0.000000 -0.360000 0.000000 84 84 84
0.000000 -0.270000 0.045000 94 94 94
0.000000 -0.270000 0.045000 196 196 196
-0.075000 -0.270000 0.000000 197 197 197
0.000000 -0.360000 0.000000 174 174 174
0.000000 0.000000 0.060000 210 210 210
-0.055556 -0.200000 0.033333 205 205 205
0.000000 -0.270000 0.045000 208 208 208
0.000000 0.000000 0.060000 172 172 172
0.055556 -0.200000 0.033333 167 167 167
0.068354 -0.068354 0.041013 175 175 175
0.000000 0.000000 0.060000 193 193 193
0.055556 0.200000 0.033333 196 196 196
0.000000 0.270000 0.045000 189 189 189
0.091525 -0.091525 0.000000 93 93 93
0.055556 -0.200000 0.033333 93 93 93
0.075000 -0.270000 0.000000 97 97 97
0.000000 0.000000 -0.060000 138 138 138
-0.200000 0.055556 -0.033333 138 138 138
-0.068354 0.068354 -0.041013 135 135 135
0.091525 0.091525 0.000000 159 159 159
0.200000 0.055556 -0.033333 159 159 159
0.068354 0.068354 -0.041013 166 166 166
0.000000 0.000000 0.060000 220 220 220
0.200000 0.055556 0.033333 215 215 215
0.068354 0.068354 0.041013 213 213 213
0.000000 0.000000 -0.060000 127 127 127
-0.055556 -0.200000 -0.033333 127 127 127
-0.068354 -0.068354 -0.041013 124 124 124
-0.091525 0.091525 0.000000 251 251 251
-0.200000 0.055556 0.033333 254 254 254
-0.068354 0.068354 0.041013 253 253 253
0.091525 0.091525 0.000000 108 108 108
0.055556 0.200000 -0.033333 108 108 108
0.075000 0.270000 0.000000 107 107 107
0.000000 0.000000 0.060000 178 178 178
-0.200000 -0.055556 0.033333 180 180 180
-0.068354 -0.068354 0.041013 188 188 188
0.091525 0.091525 0.000000 234 234 234
0.200000 0.055556 0.033333 231 231 231
0.270000 0.075000 0.000000 232 232 232
0.091525 -0.091525 0.000000 55 55 55
0.200000 -0.055556 -0.033333 55 55 55
0.270000 -0.075000 0.000000 64 64 64
0.000000 0.000000 -0.060000 107 107 107
0.200000 -0.055556 -0.033333 107 107 107
0.068354 -0.068354 -0.041013 111 111 111
-0.091525 -0.091525 0.000000 68 68 68
-0.200000 -0.055556 0.033333 68 68 68
-0.270000 -0.075000 0.000000 71 71 71
-0.091525 -0.091525 0.000000 147 147 147
-0.055556 -0.200000 -0.033333 146 146 146
-0.075000 -0.270000 0.000000 140 140 140
-0.091525 0.091525 0.000000 189 189 189
-0.200000 0.055556 -0.033333 189 189 189
-0.270000 0.075000 0.000000 175 175 175
0.091525 -0.091525 0.000000 97 97 97
0.055556 -0.200000 -0.033333 97 97 97
0.068354 -0.068354 -0.041013 93 93 93
0.091525 -0.091525 0.000000 64 64 64
0.200000 -0.055556 0.033333 64 64 64
0.068354 -0.068354 0.041013 55 55 55
0.091525 0.091525 0.000000 107 107 107
0.055556 0.200000 0.033333 107 107 107
0.068354 0.068354 0.041013 108 108 108
-0.091525 0.091525 0.000000 161 161 161
-0.055556 0.200000 -0.033333 161 161 161
-0.068354 0.068354 -0.041013 175 175 175
0.000000 0.000000 0.060000 225 225 225
-0.055556 0.200000 0.033333 231 231 231
-0.068354 0.068354 0.041013 226 226 226
-0.091525 0.091525 0.000000 245 245 245
-0.055556 0.200000 0.033333 248 248 248
-0.075000 0.270000 0.000000 248 248 248
-0.091525 -0.091525 0.000000 71 71 71
-0.200000 -0.055556 -0.033333 71 71 71
-0.068354 -0.068354 -0.041013 68 68 68
-0.091525 -0.091525 0.000000 227 227 227
-0.055556 -0.200000 0.033333 223 223 223
-0.068354 -0.068354 0.041013 223 223 223
-0.500000 0.500000 0.000000 254 254 254
-0.066667 0.500000 0.000000 76 76 76
-0.500000 0.066667 0.000000 87 87 87
-0.454649 0.352584 0.028712 244 244 244
-0.500000 0.500000 0.000000 249 249 249
-0.352584 0.454649 0.028712 249 249 249
0.352584 0.454649 0.028712 222 222 222
0.066667 0.500000 0.000000 187 187 187
0.368925 0.368925 0.028712 220 220 220
0.500000 0.500000 0.000000 128 128 128
0.352584 0.454649 0.028712 220 220 220
-0.352584 0.454649 -0.028712 145 145 145
-0.066667 0.500000 0.000000 67 67 67
-0.368925 0.368925 -0.028712 97 97 97
-0.500000 0.066667 0.000000 137 137 137
-0.500000 0.500000 0.000000 136 136 136
-0.352584 0.454649 -0.028712 146 146 146
0.500000 0.500000 0.000000 146 146 146
0.066667 0.500000 0.000000 98 98 98
0.500000 0.066667 0.000000 118 118 118
0.454649 0.352584 -0.028712 113 113 113
0.500000 0.500000 0.000000 112 112 112
-0.352584 -0.454649 0.028712 121 121 121
-0.066667 -0.500000 0.000000 218 218 218
-0.368925 -0.368925 0.028712 194 194 194
-0.500000 -0.066667 0.000000 229 229 229
-0.500000 -0.500000 0.000000 209 209 209
0.500000 -0.500000 0.000000 101 101 101
0.066667 -0.500000 0.000000 255 255 255
0.500000 -0.066667 0.000000 252 252 252
0.454649 -0.352584 0.028712 121 121 121
0.500000 -0.500000 0.000000 116 116 116
0.352584 -0.454649 0.028712 108 108 108
-0.500000 -0.500000 0.000000 94 94 94
-0.066667 -0.500000 0.000000 144 144 144
-0.500000 -0.066667 0.000000 128 128 128
-0.454649 -0.352584 -0.028712 133 133 133
-0.500000 -0.500000 0.000000 133 133 133
0.352584 -0.454649 -0.028712 95 95 95
0.066667 -0.500000 0.000000 196 196 196
0.368925 -0.368925 -0.028712 149 149 149
0.500000 -0.500000 0.000000 109 109 109
0.352584 -0.454649 -0.028712 94 94 94
0.200000 0.055556 0.033333 210 210 210
0.200000 -0.055556 0.033333 84 84 84
0.200000 -0.055556 -0.033333 84 84 84
0.200000 0.055556 -0.033333 142 142 142
0.068354 0.068354 -0.041013 132 132 132
-0.068354 -0.068354 -0.041013 115 115 115
-0.200000 0.055556 -0.033333 152 152 152
-0.200000 -0.055556 -0.033333 102 102 102
-0.200000 -0.055556 0.033333 158 158 158
-0.200000 0.055556 0.033333 255 255 255
-0.068354 0.068354 0.041013 227 227 227
0.068354 -0.068354 0.041013 172 172 172
-0.055556 0.200000 0.033333 252 252 252
0.055556 0.200000 0.033333 173 173 173
0.055556 0.200000 -0.033333 125 125 125
-0.055556 0.200000 -0.033333 146 146 146
-0.068354 0.068354 -0.041013 132 132 132
0.000000 0.270000 -0.045000 120 120 120
0.068354 -0.068354 -0.041013 114 114 114
-0.055556 -0.200000 -0.033333 122 122 122
0.055556 -0.200000 -0.033333 94 94 94
0.055556 -0.200000 0.033333 94 94 94
-0.055556 -0.200000 0.033333 199 199 199
-0.068354 -0.068354 0.041013 209 209 209
0.000000 -0.270000 0.045000 167 167 167
0.068354 0.068354 0.041013 193 193 193
0.068354 -0.068354 0.041013 93 93 93
-0.270000 0.000000 -0.045000 138 138 138
0.270000 0.075000 0.000000 159 159 159
0.270000 0.000000 0.045000 213 213 213
0.000000 -0.270000 -0.045000 127 127 127
0.068354 0.068354 -0.041013 108 108 108
-0.270000 0.000000 0.045000 184 184 184
0.068354 0.068354 0.041013 235 235 235
0.068354 -0.068354 -0.041013 55 55 55
0.270000 0.000000 -0.045000 107 107 107
-0.068354 -0.068354 0.041013 68 68 68
-0.068354 -0.068354 -0.041013 147 147 147
-0.068354 0.068354 -0.041013 188 188 188
-0.075000 0.270000 0.000000 162 162 162
0.000000 0.270000 0.045000 232 232 232
-0.068354 0.068354 0.041013 245 245 245
-0.075000 -0.270000 0.000000 221 221 221
3 0 1 2
3 3 4 5
3 5 6 7
3 5 4 6
3 4 8 6
3 9 10 11
3 12 13 14
3 15 16 17
3 18 19 20
3 0 21 22
3 23 24 25
3 26 27 28
3 27 29 30
3 27 30 28
3 28 30 31
3 32 33 34
3 35 36 37
3 38 39 40
3 41 42 43
3 44 45 46
3 47 48 49
3 50 51 52
3 51 53 54
3 51 54 52
3 52 54 55
3 56 57 58
3 59 60 61
3 62 63 64
3 65 66 67
3 68 69 70
3 71 72 73
3 74 75 76
3 76 77 78
3 76 75 77
3 75 79 77
3 80 81 82
3 83 84 85
3 86 87 88
3 89 90 91
3 92 93 94
3 95 96 97
3 98 99 100
3 99 101 102
3 99 102 100
3 100 102 103
3 104 105 106
3 107 108 109
3 110 111 112
3 113 114 115
3 116 95 117
3 118 119 120
3 121 122 123
3 123 124 125
3 123 122 124
3 122 126 124
3 127 128 129
3 130 131 132
3 133 134 135
3 136 137 138
3 139 140 141
3 142 143 144
3 145 146 147
3 147 148 149
3 147 146 148
3 146 150 148
3 151 152 153
3 154 155 146
3 156 157 158
3 159 157 160
3 161 162 117
3 163 164 165
3 166 167 168
3 167 169 170
3 167 170 168
3 168 170 171
3 172 173 174
3 175 176 177
3 178 179 180
3 181 182 183
3 184 185 141
3 186 187 188
3 189 190 191
3 190 192 191
3 193 194 195
3 196 197 198
3 199 200 201
3 202 203 204
3 205 206 207
3 208 209 210
3 211 212 213
3 214 215 216
3 217 218 219
3 220 221 222
3 223 224 225
3 226 227 228
3 229 230 231
3 196 232 233
3 234 235 236
3 237 238 239
3 240 241 242
3 243 244 245
3 244 246 245
3 247 248 249
3 250 251 252
3 253 254 255
3 256 257 258
3 259 260 261
3 262 263 264
3 265 266 267
3 268 269 270
3 271 272 273
3 274 275 276
3 277 278 279
3 280 281 282
3 283 284 285
3 286 287 288
3 289 290 291
3 292 293 294
3 295 296 297
3 298 299 300
3 301 302 303
3 304 305 306
3 307 308 309
3 310 311 312
3 313 314 315
3 316 317 318
3 319 320 321
3 322 323 324
3 0 325 1
3 9 326 10
3 12 327 13
3 15 328 16
3 18 329 19
3 0 330 21
3 23 331 24
3 32 332 33
3 35 333 36
3 38 88 39
3 41 334 42
3 44 335 45
3 47 336 48
3 56 337 57
3 59 338 60
3 62 339 63
3 65 340 66
3 68 341 69
3 71 342 72
3 80 343 81
3 83 344 84
3 86 345 87
3 89 346 90
3 92 73 93
3 95 347 96
3 104 348 105
3 107 349 108
3 110 350 111
3 113 351 114
3 116 347 95
3 118 352 119
3 127 353 128
3 130 354 131
3 133 355 134
3 136 356 137
3 139 357 140
3 142 358 143
3 151 359 152
3 154 360 155
3 156 361 157
3 159 362 157
3 161 144 162
3 163 363 164
3 172 364 173
3 175 365 176
3 178 135 179
3 181 366 182
3 184 367 185
3 186 368 187
3 189 369 190
3 190 370 192
3 193 371 194
3 196 372 197
3 199 373 200
3 202 374 203
3 205 375 206
3 208 376 209
3 211 377 212
3 214 378 215
3 217 379 218
3 220 380 221
3 223 381 224
3 226 382 227
3 229 383 230
3 196 384 232
3 234 385 235
3 237 386 238
3 240 387 241
3 243 388 244
3 244 389 246
3 247 390 248
3 250 391 251
3 253 392 254
3 256 393 257
3 259 394 260
3 262 395 263
3 265 396 266
3 268 397 269
3 271 398 272
3 274 212 275
3 277 399 278
3 280 400 281
3 283 401 284
3 286 402 287
3 289 403 290
3 292 404 293
3 295 405 296
3 298 406 299
3 301 261 302
3 304 288 305
3 307 279 308
3 310 407 311
3 313 408 314
3 316 409 317
3 319 294 320
3 322 410 323
